<svg width="25" height="24" viewBox="0 0 25 24" fill="none" xmlns="http://www.w3.org/2000/svg">
<path d="M8.5 5.75C8.09 5.75 7.75 5.41 7.75 5V2C7.75 1.59 8.09 1.25 8.5 1.25C8.91 1.25 9.25 1.59 9.25 2V5C9.25 5.41 8.91 5.75 8.5 5.75Z" fill="white"/>
<path d="M16.5 5.75C16.09 5.75 15.75 5.41 15.75 5V2C15.75 1.59 16.09 1.25 16.5 1.25C16.91 1.25 17.25 1.59 17.25 2V5C17.25 5.41 16.91 5.75 16.5 5.75Z" fill="white"/>
<path d="M9 14.5002C8.74 14.5002 8.48 14.3902 8.29 14.2102C8.11 14.0202 8 13.7702 8 13.5002C8 13.3702 8.03 13.2402 8.08 13.1202C8.13 13.0002 8.2 12.8902 8.29 12.7902C8.66 12.4202 9.33 12.4202 9.71 12.7902C9.89 12.9802 10 13.2402 10 13.5002C10 13.5602 9.99 13.6302 9.98 13.7002C9.97 13.7602 9.95 13.8202 9.92 13.8802C9.9 13.9402 9.87 14.0002 9.83 14.0602C9.79 14.1102 9.75 14.1602 9.71 14.2102C9.52 14.3902 9.26 14.5002 9 14.5002Z" fill="white"/>
<path d="M12.5 14.4998C12.37 14.4998 12.24 14.4698 12.12 14.4198C11.99 14.3698 11.89 14.2998 11.79 14.2098C11.61 14.0198 11.5 13.7698 11.5 13.4998C11.5 13.3698 11.53 13.2398 11.58 13.1198C11.63 12.9998 11.7 12.8898 11.79 12.7898C11.89 12.6998 11.99 12.6298 12.12 12.5798C12.49 12.4298 12.93 12.5098 13.21 12.7898C13.39 12.9798 13.5 13.2398 13.5 13.4998C13.5 13.5598 13.49 13.6298 13.48 13.6998C13.47 13.7598 13.45 13.8198 13.42 13.8798C13.4 13.9398 13.37 13.9998 13.33 14.0598C13.3 14.1098 13.25 14.1598 13.21 14.2098C13.02 14.3898 12.76 14.4998 12.5 14.4998Z" fill="white"/>
<path d="M9 17.9998C8.87 17.9998 8.74 17.9698 8.62 17.9198C8.49 17.8698 8.38 17.7998 8.29 17.7098C8.2 17.6198 8.13 17.5098 8.08 17.3798C8.03 17.2598 8 17.1298 8 16.9998C8 16.8698 8.03 16.7398 8.08 16.6198C8.13 16.4898 8.2 16.3798 8.29 16.2898C8.38 16.1998 8.49 16.1298 8.62 16.0798C8.86 15.9798 9.14 15.9698 9.38 16.0798C9.51 16.1298 9.62 16.1998 9.71 16.2898C9.8 16.3798 9.87 16.4898 9.92 16.6198C9.97 16.7398 10 16.8698 10 16.9998C10 17.1298 9.97 17.2598 9.92 17.3798C9.87 17.5098 9.8 17.6198 9.71 17.7098C9.62 17.7998 9.51 17.8698 9.38 17.9198C9.26 17.9698 9.13 17.9998 9 17.9998Z" fill="white"/>
<path d="M21 9.83984H4C3.59 9.83984 3.25 9.49984 3.25 9.08984C3.25 8.67984 3.59 8.33984 4 8.33984H21C21.41 8.33984 21.75 8.67984 21.75 9.08984C21.75 9.49984 21.41 9.83984 21 9.83984Z" fill="white"/>
<path d="M18.5 23.75C17.33 23.75 16.22 23.33 15.37 22.56C15.01 22.26 14.69 21.88 14.43 21.44C13.99 20.72 13.75 19.87 13.75 19C13.75 16.38 15.88 14.25 18.5 14.25C19.86 14.25 21.16 14.84 22.06 15.86C22.83 16.74 23.25 17.85 23.25 19C23.25 19.87 23.01 20.72 22.56 21.45C21.72 22.87 20.16 23.75 18.5 23.75ZM18.5 15.75C16.71 15.75 15.25 17.21 15.25 19C15.25 19.59 15.41 20.17 15.72 20.67C15.89 20.97 16.11 21.22 16.35 21.43C16.95 21.97 17.7 22.25 18.5 22.25C19.65 22.25 20.69 21.66 21.28 20.68C21.59 20.17 21.75 19.6 21.75 19C21.75 18.22 21.46 17.46 20.94 16.85C20.32 16.15 19.43 15.75 18.5 15.75Z" fill="white"/>
<path d="M17.9299 20.74C17.7399 20.74 17.5499 20.67 17.3999 20.52L16.4099 19.53C16.1199 19.24 16.1199 18.7601 16.4099 18.4701C16.6999 18.1801 17.1799 18.1801 17.4699 18.4701L17.9499 18.9501L19.5499 17.4701C19.8499 17.1901 20.3299 17.2101 20.6099 17.5101C20.8899 17.8101 20.8699 18.2901 20.5699 18.5701L18.4399 20.5401C18.2899 20.6701 18.1099 20.74 17.9299 20.74Z" fill="white"/>
<path d="M15.87 22.75H8.5C4.85 22.75 2.75 20.65 2.75 17V8.5C2.75 4.85 4.85 2.75 8.5 2.75H16.5C20.15 2.75 22.25 4.85 22.25 8.5V16.36C22.25 16.67 22.06 16.95 21.76 17.06C21.47 17.17 21.14 17.09 20.93 16.85C20.31 16.15 19.42 15.75 18.49 15.75C16.7 15.75 15.24 17.21 15.24 19C15.24 19.59 15.4 20.17 15.71 20.67C15.88 20.97 16.1 21.22 16.34 21.43C16.58 21.63 16.67 21.96 16.56 22.26C16.47 22.55 16.19 22.75 15.87 22.75ZM8.5 4.25C5.64 4.25 4.25 5.64 4.25 8.5V17C4.25 19.86 5.64 21.25 8.5 21.25H14.32C13.95 20.57 13.75 19.8 13.75 19C13.75 16.38 15.88 14.25 18.5 14.25C19.29 14.25 20.07 14.45 20.75 14.82V8.5C20.75 5.64 19.36 4.25 16.5 4.25H8.5Z" fill="white"/>
</svg>
