<svg width="25" height="24" viewBox="0 0 25 24" fill="none" xmlns="http://www.w3.org/2000/svg">
<path d="M20.4994 11.7501H4.49937C4.26937 11.7501 4.05937 11.6501 3.91937 11.4701C3.77937 11.3001 3.71937 11.0601 3.76937 10.8401L4.89937 5.44008C5.26937 3.69008 6.01937 2.08008 8.98937 2.08008H16.0194C18.9894 2.08008 19.7394 3.70008 20.1094 5.44008L21.2394 10.8501C21.2894 11.0701 21.2294 11.3001 21.0894 11.4801C20.9394 11.6501 20.7294 11.7501 20.4994 11.7501ZM5.41937 10.2501H19.5694L18.6294 5.75008C18.3494 4.44008 18.0194 3.58008 16.0094 3.58008H8.98937C6.97937 3.58008 6.64937 4.44008 6.36937 5.75008L5.41937 10.2501Z" fill="white"/>
<path d="M20.4596 22.75H18.5796C16.9596 22.75 16.6496 21.82 16.4496 21.21L16.2496 20.61C15.9896 19.85 15.9596 19.75 15.0596 19.75H9.9396C9.0396 19.75 8.9796 19.92 8.7496 20.61L8.5496 21.21C8.3396 21.83 8.0396 22.75 6.4196 22.75H4.5396C3.7496 22.75 2.9896 22.42 2.4596 21.84C1.9396 21.27 1.6896 20.51 1.7596 19.75L2.3196 13.66C2.4696 12.01 2.9096 10.25 6.1196 10.25H18.8796C22.0896 10.25 22.5196 12.01 22.6796 13.66L23.2396 19.75C23.3096 20.51 23.0596 21.27 22.5396 21.84C22.0096 22.42 21.2496 22.75 20.4596 22.75ZM9.9396 18.25H15.0596C16.8796 18.25 17.3096 19.06 17.6696 20.12L17.8796 20.74C18.0496 21.25 18.0496 21.26 18.5896 21.26H20.4696C20.8396 21.26 21.1896 21.11 21.4396 20.84C21.6796 20.58 21.7896 20.25 21.7596 19.9L21.1996 13.81C21.0696 12.46 20.9096 11.76 18.8996 11.76H6.1196C4.0996 11.76 3.9396 12.46 3.8196 13.81L3.2596 19.9C3.2296 20.25 3.3396 20.58 3.5796 20.84C3.8196 21.11 4.1796 21.26 4.5496 21.26H6.4296C6.9696 21.26 6.9696 21.25 7.1396 20.75L7.3396 20.14C7.5896 19.34 7.9596 18.25 9.9396 18.25Z" fill="white"/>
<path d="M4.49951 8.75H3.49951C3.08951 8.75 2.74951 8.41 2.74951 8C2.74951 7.59 3.08951 7.25 3.49951 7.25H4.49951C4.90951 7.25 5.24951 7.59 5.24951 8C5.24951 8.41 4.90951 8.75 4.49951 8.75Z" fill="white"/>
<path d="M21.4995 8.75H20.4995C20.0895 8.75 19.7495 8.41 19.7495 8C19.7495 7.59 20.0895 7.25 20.4995 7.25H21.4995C21.9095 7.25 22.2495 7.59 22.2495 8C22.2495 8.41 21.9095 8.75 21.4995 8.75Z" fill="white"/>
<path d="M12.4995 5.75C12.0895 5.75 11.7495 5.41 11.7495 5V3C11.7495 2.59 12.0895 2.25 12.4995 2.25C12.9095 2.25 13.2495 2.59 13.2495 3V5C13.2495 5.41 12.9095 5.75 12.4995 5.75Z" fill="white"/>
<path d="M13.9995 5.75H10.9995C10.5895 5.75 10.2495 5.41 10.2495 5C10.2495 4.59 10.5895 4.25 10.9995 4.25H13.9995C14.4095 4.25 14.7495 4.59 14.7495 5C14.7495 5.41 14.4095 5.75 13.9995 5.75Z" fill="white"/>
<path d="M9.49951 15.75H6.49951C6.08951 15.75 5.74951 15.41 5.74951 15C5.74951 14.59 6.08951 14.25 6.49951 14.25H9.49951C9.90951 14.25 10.2495 14.59 10.2495 15C10.2495 15.41 9.90951 15.75 9.49951 15.75Z" fill="white"/>
<path d="M18.4995 15.75H15.4995C15.0895 15.75 14.7495 15.41 14.7495 15C14.7495 14.59 15.0895 14.25 15.4995 14.25H18.4995C18.9095 14.25 19.2495 14.59 19.2495 15C19.2495 15.41 18.9095 15.75 18.4995 15.75Z" fill="white"/>
</svg>
