<svg width="25" height="24" viewBox="0 0 25 24" fill="none" xmlns="http://www.w3.org/2000/svg">
<path d="M12.5 2.75C5.563 2.75 3.25 5.063 3.25 12C3.25 18.937 5.563 21.25 12.5 21.25C19.437 21.25 21.75 18.937 21.75 12" stroke="white" stroke-width="1.5" stroke-linecap="round" stroke-linejoin="round"/>
<path fill-rule="evenodd" clip-rule="evenodd" d="M20.0285 4.30364V4.30364C19.0355 3.42464 17.5185 3.51664 16.6395 4.50964C16.6395 4.50964 12.2705 9.44464 10.7555 11.1576C9.23853 12.8696 10.3505 15.2346 10.3505 15.2346C10.3505 15.2346 12.8545 16.0276 14.3485 14.3396C15.8435 12.6516 20.2345 7.69264 20.2345 7.69264C21.1135 6.69964 21.0205 5.18264 20.0285 4.30364Z" stroke="white" stroke-width="1.5" stroke-linecap="round" stroke-linejoin="round"/>
<path d="M15.5088 5.80078L19.1038 8.98378" stroke="white" stroke-width="1.5" stroke-linecap="round" stroke-linejoin="round"/>
</svg>
