<svg width="25" height="24" viewBox="0 0 25 24" fill="none" xmlns="http://www.w3.org/2000/svg">
<path d="M18.9702 22.75H14.9702C12.5502 22.75 11.2202 21.42 11.2202 19V5C11.2202 2.58 12.5502 1.25 14.9702 1.25H18.9702C21.3902 1.25 22.7202 2.58 22.7202 5V19C22.7202 21.42 21.3802 22.75 18.9702 22.75ZM14.9702 2.75C13.3902 2.75 12.7202 3.42 12.7202 5V19C12.7202 20.58 13.3902 21.25 14.9702 21.25H18.9702C20.5502 21.25 21.2202 20.58 21.2202 19V5C21.2202 3.42 20.5502 2.75 18.9702 2.75H14.9702Z" fill="white"/>
<path d="M16.9702 6.75H11.9702C11.5602 6.75 11.2202 6.41 11.2202 6C11.2202 5.59 11.5602 5.25 11.9702 5.25H16.9702C17.3802 5.25 17.7202 5.59 17.7202 6C17.7202 6.41 17.3802 6.75 16.9702 6.75Z" fill="white"/>
<path d="M15.9702 18.75H11.9702C11.5602 18.75 11.2202 18.41 11.2202 18C11.2202 17.59 11.5602 17.25 11.9702 17.25H15.9702C16.3802 17.25 16.7202 17.59 16.7202 18C16.7202 18.41 16.3802 18.75 15.9702 18.75Z" fill="white"/>
<path d="M16.9699 14.7502C16.9599 14.7502 16.9599 14.7502 16.9699 14.7502L11.9599 14.7002C11.5499 14.7002 11.2099 14.3602 11.2199 13.9402C11.2199 13.5302 11.5599 13.2002 11.9699 13.2002C11.9699 13.2002 11.9699 13.2002 11.9799 13.2002L16.9799 13.2502C17.3899 13.2502 17.7299 13.5902 17.7199 14.0102C17.7099 14.4202 17.3799 14.7502 16.9699 14.7502Z" fill="white"/>
<path d="M14.9702 10.75H11.9702C11.5602 10.75 11.2202 10.41 11.2202 10C11.2202 9.59 11.5602 9.25 11.9702 9.25H14.9702C15.3802 9.25 15.7202 9.59 15.7202 10C15.7202 10.41 15.3802 10.75 14.9702 10.75Z" fill="white"/>
<path d="M5.98978 22.72C5.07978 22.72 4.21979 22.16 3.62979 21.18L2.80979 19.82C2.50979 19.32 2.27979 18.5 2.27979 17.92V4.95C2.27979 2.91 3.93979 1.25 5.97979 1.25C8.01979 1.25 9.67979 2.91 9.67979 4.95V17.91C9.67979 18.49 9.44979 19.31 9.14979 19.81L8.32979 21.17C7.75979 22.16 6.89978 22.72 5.98978 22.72ZM5.98978 2.75C4.77978 2.75 3.78979 3.74 3.78979 4.95V17.91C3.78979 18.22 3.93979 18.77 4.09979 19.04L4.91979 20.4C5.22979 20.92 5.61978 21.21 5.98978 21.21C6.35978 21.21 6.74978 20.91 7.05978 20.4L7.87979 19.04C8.03979 18.77 8.18979 18.22 8.18979 17.91V4.95C8.18979 3.74 7.19978 2.75 5.98978 2.75Z" fill="white"/>
<path d="M8.93979 7.75H3.02979C2.61979 7.75 2.27979 7.41 2.27979 7C2.27979 6.59 2.61979 6.25 3.02979 6.25H8.93979C9.34979 6.25 9.68979 6.59 9.68979 7C9.68979 7.41 9.34979 7.75 8.93979 7.75Z" fill="white"/>
</svg>
